# xmcd
#
# Track frame offsets: 
#        150
#        33945
#        49507
#        71716
#        87810
#        100826
#        113884
#        128192
#        142469
#        153659
#        164272
#        178262
#        191311
#        207479
#        218039
#        237937
#        249114
#        266334
#        280485
#        297885
#
# Disc length: 4292 seconds
#
# Revision: 1
# Processed by: cddbd v1.5.2PL0 Copyright (c) Steve Scherf et al.
# Submitted via: ExactAudioCopy v0.99pb5
#
DISCID=2b10c214
DTITLE=Millésime - Blues Music - CD4 The soul side of the blues
DYEAR=2000
DGENRE=Blues
TTITLE0=Big Mama Thornton - Ball and chain
TTITLE1=Magic Sam - 43rd and Park blues
TTITLE2=Muddy Waters - Honky tonk
TTITLE3=John Lee Hooker - My first wife left me
TTITLE4=T. Bone Walker - Mean old world
TTITLE5=Tampa Red - Anna Lou blues
TTITLE6=Mildred Bailey - A ghost of a chance
TTITLE7=Mildred Bailey - Lover come back to me
TTITLE8=Roseta Tharpe - Trouble in mind
TTITLE9=Little Esther - Sit back down
TTITLE10=Billie Holiday - More than you know
TTITLE11=Billie Holliday - God bless the child
TTITLE12=Billie Holiday - Billie's blues
TTITLE13=Ethel Waters - I have got the right to sing the blues
TTITLE14=Etta James - I'd rather go blind
TTITLE15=Dinah Washington - It isn't fair
TTITLE16=Dinah Washington - What a difference a day makes/Making whoop
TTITLE16=pee
TTITLE17=Sarah Vaughan - Honeysuckle Rose
TTITLE18=Sarah Vaughan - Over the rainbow
TTITLE19=Sarah Vaughan - Misty
EXTD=YEAR: 2000
EXTT0=
EXTT1=
EXTT2=
EXTT3=
EXTT4=
EXTT5=
EXTT6=
EXTT7=
EXTT8=
EXTT9=
EXTT10=
EXTT11=
EXTT12=
EXTT13=
EXTT14=
EXTT15=
EXTT16=
EXTT17=
EXTT18=
EXTT19=
PLAYORDER=
